HIERARCHY
ROOT Hips
{
  OFFSET 0 0 0
  CHANNELS 6 Xposition Yposition Zposition Zrotation Yrotation Xrotation
  JOINT LeftThigh
  {
    OFFSET 8.409438 0 -5.917753
    CHANNELS 3 Zrotation Yrotation Xrotation
    JOINT LeftLeg
    {
      OFFSET 0 0 -42.358652
      CHANNELS 3 Zrotation Yrotation Xrotation
      JOINT LeftFoot
      {
        OFFSET 0 0 -39.357303
        CHANNELS 3 Zrotation Yrotation Xrotation
      }
    }
  }
  JOINT RightThigh
  {
    OFFSET -8.409438 0 -5.917753
    CHANNELS 3 Zrotation Yrotation Xrotation
    JOINT RightLeg
    {
      OFFSET 0 0 -42.358652
      CHANNELS 3 Zrotation Yrotation Xrotation
      JOINT RightFoot
      {
        OFFSET 0 0 -39.357303
        CHANNELS 3 Zrotation Yrotation Xrotation
      }
    }
  }
  JOINT SpineLow
  {
    OFFSET 0 0 4.719101
    CHANNELS 3 Zrotation Yrotation Xrotation
    JOINT SpineMid
    {
      OFFSET 0 0 12.899191
      CHANNELS 3 Zrotation Yrotation Xrotation
      JOINT Chest
      {
        OFFSET 0 0 12.899191
        CHANNELS 3 Zrotation Yrotation Xrotation
        JOINT LeftShoulder
        {
          OFFSET 7.550562 1.41573 9.438202
          CHANNELS 3 Zrotation Yrotation Xrotation
          JOINT LeftArm
          {
            OFFSET 9.155056 0 4.247191
            CHANNELS 3 Zrotation Yrotation Xrotation
            JOINT LeftForearm
            {
              OFFSET 0 0 25.771955
              CHANNELS 3 Zrotation Yrotation Xrotation
              JOINT LeftHand
              {
                OFFSET 0 0 25.197169
                CHANNELS 3 Zrotation Yrotation Xrotation
              }
            }
          }
        }
        JOINT RightShoulder
        {
          OFFSET -7.550562 1.41573 9.438202
          CHANNELS 3 Zrotation Yrotation Xrotation
          JOINT RightArm
          {
            OFFSET -9.155056 0 4.247191
            CHANNELS 3 Zrotation Yrotation Xrotation
            JOINT RightForearm
            {
              OFFSET 0 0 -25.771955
              CHANNELS 3 Zrotation Yrotation Xrotation
              JOINT RightHand
              {
                OFFSET 0 0 -25.197169
                CHANNELS 3 Zrotation Yrotation Xrotation
              }
            }
          }
        }
        JOINT Neck
        {
          OFFSET 0 0 15.101124
          CHANNELS 3 Zrotation Yrotation Xrotation
          JOINT Head
          {
            OFFSET 0 0 11.325843
            CHANNELS 3 Zrotation Yrotation Xrotation
            End Site
            {
              OFFSET 0 0 14.157303
            }
          }
        }
      }
    }
  }
}
MOTION
Frames: 18
Frame Time: 0.0
0.0  89.887642  0.0  2.911085  -18.966264  -98.462085  4.433315  -12.53994  3.714939  0.011441  4.238725  23.507738  1.297107  1.322359  0.377443  -12.132105  12.275911  2.55009  -18.296871  3.157752  -0.707005  9.208271  0.360852  0.081395  0.333271  -0.504652  0.49219  0.90077  -1.386104  1.338549  0.90077  -1.386104  1.338549  -5.602652  15.981501  0.489283  150.907293  45.687276  -154.296125  -9.993652  -2.744425  22.296331  89.777076  -6.307435  11.026858  -5.793581  -2.339907  14.100709  92.43033  30.473502  38.84142  -0.449202  11.400205  -32.159205  100.452325  8.710871  -14.417718  -4.759421  4.069334  3.361889  -3.590609  3.026159  2.552276  
0.0  89.887642  0.0  2.882859  -19.180302  -98.523876  4.488618  -12.609834  3.708621  -0.093016  4.248467  23.521366  1.2339  1.342416  0.395101  -12.00145  12.200614  2.684265  -18.298183  3.052379  -0.854932  9.241244  0.335117  0.098254  0.326472  -0.509467  0.488005  0.882176  -1.399071  1.327191  0.882176  -1.399071  1.32719  -5.501185  15.940541  0.574364  150.596959  45.447625  -154.711331  -9.733635  -2.769511  22.358942  89.803534  -6.128488  10.772344  -5.799106  -2.416653  14.073517  92.427186  30.345552  38.816299  -0.317851  11.421245  -32.00377  100.288816  8.789467  -14.419101  -4.613976  4.098058  3.447029  -3.482283  3.047855  2.61533  
0.0  89.887642  0.0  2.860468  -19.31963  -98.544769  4.566306  -12.650958  3.708  -0.072124  4.265745  23.638277  1.046737  1.304064  0.344582  -11.805854  12.15776  2.812674  -18.422715  2.939828  -0.996357  9.280001  0.318117  0.105673  0.332368  -0.514298  0.486921  0.898223  -1.412379  1.324037  0.898223  -1.412379  1.324037  -5.527175  15.89206  0.624045  150.199415  45.339541  -154.960399  -9.727466  -2.76915  22.119935  89.913164  -6.08194  10.653073  -5.988428  -2.468884  13.981906  92.522813  30.241339  38.845691  -0.388772  11.295004  -31.94778  100.165421  8.879334  -14.435281  -4.54417  4.120111  3.491723  -3.430364  3.064454  2.648517  
0.0  89.887642  0.0  2.841864  -19.521034  -98.593331  4.616798  -12.731807  3.679488  -0.072948  4.302585  23.778841  0.954201  1.329442  0.347729  -11.629485  12.117898  2.9437  -18.291116  2.859301  -1.066556  9.220271  0.299218  0.074779  0.342802  -0.517734  0.491851  0.926573  -1.422047  1.337245  0.926573  -1.422047  1.337246  -5.518691  15.815041  0.678045  150.23724  45.172669  -155.080985  -9.357649  -2.657816  22.224766  89.654818  -6.195782  10.585436  -6.10963  -2.512076  13.923676  92.641105  30.151884  38.943056  -0.573184  11.043491  -32.040278  99.984703  8.914858  -14.453668  -4.430288  4.130062  3.552482  -3.345452  3.072123  2.693358  
0.0  89.887642  0.0  2.835147  -19.617885  -98.615324  4.650308  -12.772221  3.653665  -0.091353  4.382762  23.925972  0.830002  1.295535  0.302116  -11.530318  12.109692  3.057826  -18.426165  2.758312  -1.201497  9.269176  0.27663  0.068118  0.32753  -0.517803  0.492738  0.884802  -1.421938  1.339999  0.884802  -1.421938  1.339999  -5.432952  15.755135  0.74503  150.263016  45.109481  -155.131056  -9.247343  -2.49849  22.116297  89.708592  -6.123866  10.536199  -6.158009  -2.520635  13.909783  92.647018  30.100863  38.906744  -0.744726  10.792932  -32.178862  99.804712  8.905215  -14.527869  -4.306186  4.137565  3.579975  -3.252639  3.07827  2.71317  
0.0  89.887642  0.0  2.847264  -19.723762  -98.683866  4.627918  -12.828286  3.634849  -0.030147  4.496547  24.149215  0.78209  1.261725  0.290581  -11.488369  12.151301  3.200337  -18.455956  2.641804  -1.291653  9.301173  0.258561  0.024035  0.303534  -0.517008  0.501254  0.819039  -1.419386  1.363806  0.819039  -1.419386  1.363806  -5.374378  15.687191  0.769283  150.493636  44.997726  -155.128156  -9.008018  -2.313778  22.170397  89.470078  -6.215472  10.457976  -6.13431  -2.485981  13.928699  92.586738  30.093711  38.87773  -0.941462  10.503632  -32.501634  99.698463  8.868009  -14.590289  -4.107855  4.141372  3.629781  -3.104311  3.081939  2.749174  
0.0  89.887642  0.0  2.866126  -19.767045  -98.753382  4.576046  -12.846645  3.627312  0.023095  4.599703  24.34431  0.706643  1.217985  0.259465  -11.541853  12.221867  3.331958  -18.597435  2.512563  -1.410646  9.420007  0.250537  -0.005449  0.279308  -0.508469  0.512042  0.752757  -1.395671  1.393912  0.752757  -1.395671  1.393912  -5.32351  15.614308  0.815862  150.68585  44.954701  -155.119482  -8.941868  -2.114563  22.09166  89.511049  -6.16435  10.373395  -6.113516  -2.442415  13.984713  92.292787  30.174609  38.685038  -1.010005  10.282759  -32.929869  99.594692  8.823049  -14.616431  -3.980848  4.123198  3.631655  -3.009009  3.069039  2.7496  
0.0  89.887642  0.0  2.898814  -19.779244  -98.809342  4.516041  -12.888294  3.592247  0.190302  4.728033  24.630758  0.536149  1.138032  0.169265  -11.699246  12.308204  3.428859  -18.769063  2.348112  -1.515786  9.571366  0.258508  -0.054702  0.253255  -0.501024  0.520796  0.681512  -1.374863  1.418466  0.681512  -1.374863  1.418466  -5.334676  15.555831  0.883032  150.909138  44.865149  -154.977695  -8.70607  -2.02245  22.045804  89.308412  -6.187366  10.235672  -6.115918  -2.371336  14.066986  91.77305  30.356461  38.391583  -0.881547  10.165794  -33.521359  99.467721  8.7658  -14.641721  -3.858196  4.088826  3.637716  -2.916913  3.043939  2.753108  
0.0  89.887642  0.0  2.927246  -19.789224  -98.818879  4.515969  -12.930059  3.508402  0.223908  4.875328  24.840278  0.473069  1.095132  0.153536  -11.862213  12.411153  3.476691  -18.917896  2.177021  -1.599299  9.813218  0.284386  -0.119128  0.227057  -0.492241  0.519628  0.610107  -1.350286  1.415898  0.610107  -1.350286  1.415897  -5.292362  15.520647  1.005088  151.090072  44.828043  -154.882552  -8.656137  -1.92066  21.86737  89.344027  -6.205612  10.099932  -6.074207  -2.246318  14.188001  91.450506  30.467852  38.10651  -0.987909  9.967353  -34.253227  99.25071  8.677466  -14.694332  -3.739996  4.067102  3.627413  -2.828111  3.028401  2.744463  
0.0  89.887642  0.0  2.949501  -19.730276  -98.732979  4.425605  -13.000637  3.276588  0.244692  5.02924  25.063753  0.411148  1.089817  0.168716  -12.323074  12.478685  3.354401  -19.079679  1.979704  -1.671647  10.203923  0.348372  -0.17273  0.19921  -0.481816  0.521836  0.53416  -1.321215  1.422581  0.53416  -1.321215  1.422581  -5.296405  15.488791  1.016576  151.120669  44.770279  -154.765959  -8.572258  -1.927027  21.590125  89.332897  -6.237102  9.932213  -6.141041  -2.161541  14.147034  91.340227  30.564695  37.879439  -1.164431  9.583251  -35.142974  98.928041  8.544473  -14.7004  -3.704233  4.011904  3.545587  -2.800458  2.987699  2.68257  
0.0  89.887642  0.0  2.978307  -19.735037  -98.716028  4.434512  -13.052501  3.136816  0.291126  5.199989  25.309807  0.337314  1.048076  0.17861  -12.530943  12.603322  3.345854  -19.091084  1.816448  -1.704935  10.435515  0.392437  -0.254498  0.172664  -0.462985  0.53556  0.461734  -1.269268  1.460752  0.461734  -1.269268  1.460751  -5.254421  15.401075  1.021691  151.109827  44.73742  -154.695358  -8.534748  -1.928783  21.248958  89.425097  -6.325463  9.770083  -5.971945  -2.128073  14.183153  91.28036  30.727671  37.663803  -1.512301  8.997826  -36.209372  98.466198  8.367866  -14.729605  -3.586917  3.953186  3.459926  -2.711633  2.944826  2.617254  
0.0  89.887642  0.0  3.015396  -19.653785  -98.64121  4.268458  -13.097395  2.847707  0.231447  5.363394  25.544532  0.333539  1.080833  0.247296  -13.153555  12.656857  3.149345  -19.128916  1.67819  -1.733745  10.972787  0.467828  -0.293911  0.144404  -0.450529  0.538238  0.384705  -1.234615  1.468679  0.384705  -1.234615  1.468678  -5.009228  15.418276  1.136878  150.799472  44.772944  -154.607445  -8.400266  -1.958394  20.858924  89.539158  -6.389999  9.615909  -5.842091  -2.030643  14.213094  91.353699  30.849448  37.43818  -1.989904  8.256766  -37.453445  97.868499  8.139217  -14.979272  -3.598596  3.900121  3.351947  -2.71942  2.905587  2.536088  
0.0  89.887642  0.0  3.046288  -19.601808  -98.576255  4.232225  -13.143147  2.581979  0.273694  5.580844  25.869327  0.283066  1.044505  0.277195  -13.418781  12.774696  3.065231  -19.062152  1.54761  -1.707126  11.169761  0.517334  -0.373503  0.143639  -0.422668  0.544369  0.383122  -1.158481  1.485601  0.383122  -1.158481  1.485601  -5.15047  15.288451  1.088813  150.623397  44.790475  -154.598087  -8.224117  -1.962497  20.397611  89.716133  -6.450722  9.51057  -5.656334  -2.051043  14.304258  91.306628  30.977011  37.090355  -2.543427  7.25857  -38.850663  97.155337  7.81695  -15.43456  -3.617335  3.813399  3.268288  -2.73251  2.840928  2.473013  
0.0  89.887642  0.0  3.0519  -19.400585  -98.469364  4.090596  -13.251751  2.335035  0.330901  5.806353  26.217074  0.245218  1.036652  0.275505  -13.959653  12.83649  2.852676  -19.00646  1.467485  -1.627385  11.481587  0.563496  -0.419226  0.138924  -0.398676  0.550108  0.370675  -1.092832  1.501495  0.370675  -1.092832  1.501495  -5.216851  15.204303  1.071228  150.289812  44.893137  -154.552577  -7.939584  -1.935407  19.877679  89.892444  -6.522035  9.435076  -5.464623  -2.102922  14.328815  91.236493  31.034352  36.683298  -3.134484  5.937938  -40.432843  96.346294  7.342016  -15.92755  -3.793447  3.704029  3.154352  -2.863324  2.758664  2.388067  
0.0  89.887642  0.0  3.081942  -19.221808  -98.463322  3.856293  -13.268099  2.174619  0.313615  5.996677  26.447777  0.284392  1.071185  0.34109  -14.24801  12.950564  2.758829  -18.932834  1.460402  -1.478252  11.636366  0.598045  -0.505939  0.165757  -0.367043  0.567418  0.444472  -1.007094  1.548567  0.444472  -1.007094  1.548567  -5.473922  15.064041  1.036115  149.950607  45.052027  -154.470365  -7.670935  -1.860285  19.229681  90.071374  -6.617595  9.365731  -5.236425  -2.209725  14.400948  91.141662  31.091964  36.195858  -3.700093  4.375564  -42.206748  95.46222  6.76464  -16.31278  -3.987852  3.607917  3.075013  -3.008163  2.686098  2.329184  
0.0  89.887642  0.0  3.057534  -18.872231  -98.405173  3.593215  -13.343182  2.039376  0.260095  6.22187  26.683919  0.30188  1.076661  0.353629  -14.868782  12.967155  2.545308  -19.123514  1.472147  -1.352596  11.966506  0.665972  -0.554134  0.206149  -0.337003  0.579457  0.555409  -0.926035  1.581095  0.555409  -0.926035  1.581095  -5.799314  14.914309  1.037327  149.506581  45.290477  -154.364311  -7.379589  -1.723258  18.547572  90.281911  -6.70766  9.279125  -5.094927  -2.342573  14.466912  91.197582  31.098595  35.60862  -4.19891  2.840894  -44.12835  94.415155  6.159332  -16.720717  -4.397262  3.464421  2.98122  -3.313951  2.577104  2.260325  
0.0  89.887642  0.0  3.061913  -18.521553  -98.357056  3.184141  -13.315981  1.756741  0.240847  6.417533  27.008751  0.394602  1.086556  0.385809  -15.218413  13.033129  2.384164  -19.037356  1.567009  -1.1225  12.074085  0.703221  -0.62143  0.282837  -0.339887  0.546821  0.765424  -0.935372  1.490773  0.765424  -0.935372  1.490773  -6.252621  15.00049  1.285253  149.086481  45.614172  -154.18622  -7.042254  -1.479995  17.771644  90.54519  -6.806968  9.170752  -4.990812  -2.252538  14.870178  91.365005  31.108272  34.921633  -4.612192  1.765491  -46.176491  92.897244  5.612211  -17.567586  -4.875399  3.480176  3.059162  -3.67297  2.586009  2.321633  
0.0  89.887642  0.0  3.004883  -17.954312  -98.237145  2.768496  -13.360701  1.4651  0.147619  6.636327  27.329994  0.373247  1.050541  0.334319  -16.035191  13.034188  2.040774  -18.983665  1.699935  -0.866403  12.313398  0.75988  -0.656637  0.352194  -0.31275  0.518818  0.955977  -0.86236  1.413623  0.955977  -0.86236  1.413624  -6.717521  14.866946  1.487494  148.605002  46.054885  -153.965737  -6.538263  -1.167137  16.967596  90.882007  -6.982918  9.129091  -4.815185  -2.465722  15.276113  91.683306  31.132973  34.180369  -4.977911  0.206201  -48.28064  91.43848  4.941477  -18.30231  -5.519662  3.31874  3.099868  -4.155563  2.461381  2.354481  
